<?xml version="1.0" encoding="UTF-8"?><svg id="Layer_1" xmlns="http://www.w3.org/2000/svg" viewBox="0 0 680 680"><defs><style>.cls-1{fill:#4c4a3b;}</style></defs><g><path class="cls-1" d="M579.97,99.51C515.8,35.34,430.49,0,339.74,0S163.68,35.34,99.51,99.51C35.34,163.68,0,248.99,0,339.74s35.34,176.06,99.51,240.23c64.17,64.17,149.48,99.51,240.23,99.51s176.06-35.34,240.23-99.51c64.17-64.17,99.51-149.48,99.51-240.23s-35.34-176.06-99.51-240.23Zm-240.23,569.85c-181.75,0-329.61-147.86-329.61-329.61S157.99,10.13,339.74,10.13s329.61,147.86,329.61,329.61-147.86,329.61-329.61,329.61Z"/><path class="cls-1" d="M562.88,116.6c-59.6-59.6-138.85-92.43-223.14-92.43S176.2,56.99,116.6,116.6C56.99,176.2,24.17,255.45,24.17,339.74s32.82,163.54,92.43,223.14c59.6,59.6,138.85,92.43,223.14,92.43s163.54-32.82,223.14-92.43c59.6-59.6,92.43-138.85,92.43-223.14s-32.82-163.54-92.43-223.14Zm-7.16,7.16c12.54,12.54,23.85,25.98,33.88,40.17H281.24l122.86-122.86c57.03,12.17,109.42,40.48,151.63,82.69ZM174.05,83.04c48.93-31.72,106-48.75,165.69-48.75,17.73,0,35.24,1.5,52.36,4.45l-218.05,218.05V83.04Zm-50.29,40.72c12.54-12.54,25.98-23.85,40.17-33.88V398.24l-122.86-122.86c12.17-57.03,40.48-109.42,82.69-151.63ZM34.3,339.74c0-17.73,1.5-35.23,4.45-52.36l126.67,126.67,91.38,91.38H83.04c-31.72-48.93-48.75-106-48.75-165.69Zm89.46,215.98c-12.54-12.54-23.85-25.98-33.88-40.17H398.24l-122.86,122.86c-57.03-12.17-109.42-40.48-151.63-82.69Zm381.67,40.72c-48.93,31.72-106,48.75-165.69,48.75-17.73,0-35.24-1.5-52.36-4.45l218.05-218.05v173.75Zm0-189.3l-16.45,17.68-80.61,80.61h-137.26l-97.06-97.06v-137.26l1.4-1.4,11.63-11.63,84.02-84.02h137.26l97.06,97.06v136.03Zm50.29,148.58c-12.54,12.54-25.98,23.85-40.17,33.88V281.23l122.86,122.86c-12.17,57.03-40.48,109.42-82.69,151.63ZM422.69,174.05h173.75c31.72,48.93,48.75,106,48.75,165.69,0,17.73-1.5,35.24-4.45,52.36l-218.05-218.05Z"/></g><path class="cls-1" d="M458.83,366.42c-39.74-16.08-75.95-24.36-107.62-24.59-.03,0-.05,0-.08,0-3.94,0-7.35,2.29-8.98,5.62-8.78,.38-17.2,1.41-25.25,3.12,6.77-12.79,14.66-25.58,23.82-37.75,21.8,.15,45.96,2.72,72.21,7.7,.63,.12,1.26,.18,1.88,.18,4.71,0,8.9-3.34,9.81-8.14,1.03-5.43-2.53-10.66-7.96-11.69-21.12-4.01-41.03-6.51-59.59-7.53,18.75-19.97,41.75-36.93,69.88-47.46,2.33-.87,3.51-3.46,2.64-5.79-.87-2.33-3.46-3.51-5.79-2.64-29.66,11.1-56.06,29.72-78.64,55.43-13.1-.27-25.46,.26-37.05,1.59-3.93,.45-7.06,3.13-8.29,6.63-3.44,.54-6.83,1.14-10.13,1.83,20.97-41.36,53.54-81.13,104.04-100.93,2.31-.91,3.45-3.52,2.55-5.83-.91-2.31-3.52-3.45-5.83-2.55-35.15,13.79-64.97,37.77-88.64,71.29-8.71,12.34-16.59,25.99-23.61,40.83-21.22,5.94-39.04,15.44-53.37,28.47,6.56-35.77,18.59-71.77,40.27-95.7,1.67-1.84,1.53-4.69-.31-6.36-1.84-1.67-4.69-1.53-6.36,.31-22.22,24.51-37.23,62.61-44.75,113.45-31.24,38.06-26.81,84.66-26.58,86.82,.24,2.31,2.19,4.03,4.47,4.03,.16,0,.31,0,.47-.02,2.47-.26,4.27-2.47,4.01-4.94-.04-.43-3.2-34.31,15.18-66.42-.13,1.29-.27,2.57-.4,3.87-4.5,46.31-1.59,85.04-1.56,85.43,.18,2.36,2.15,4.15,4.48,4.15,.12,0,.23,0,.35-.01,.76-.06,1.44-.32,2.05-.7-.42,2.16-.61,3.52-.66,3.87-.33,2.46,1.39,4.73,3.86,5.06,.21,.03,.41,.04,.61,.04,2.22,0,4.15-1.64,4.45-3.9,.06-.41,4.09-28.37,22.56-55.53-7.65,43.61-7.43,76.47-7.42,76.91,.03,2.47,2.04,4.45,4.5,4.45h.05c2.48-.03,4.48-2.06,4.45-4.55,0-.48-.27-41.21,10.52-91.94,7.07-7.52,15.52-14.52,25.63-20.31,4.8-2.75,9.82-5.12,15.04-7.16-4.15,9.15-8.03,18.7-11.62,28.64-21.64,59.9-25.64,113.98-25.68,114.52-.17,2.48,1.69,4.63,4.17,4.8,.11,0,.21,.01,.32,.01,1.07,0,2.05-.39,2.83-1.03,.49,.41,1.07,.72,1.73,.89,.37,.09,.74,.14,1.11,.14,2.01,0,3.84-1.36,4.36-3.39,.06-.24,6.31-24.34,23.72-48.65,23.16-32.36,53.97-49.42,91.57-50.7,2.48-.09,4.43-2.17,4.34-4.65-.08-2.48-2.2-4.42-4.65-4.34-39.97,1.37-74.05,20.2-98.58,54.46-9.84,13.74-16.26,27.27-20.15,37.04,2.73-20.12,9.17-56.75,23.36-96.04,4.1-11.34,9.04-23.39,14.96-35.61,9.62-2.64,19.86-4.2,30.72-4.69,1.66,3.17,4.96,5.34,8.79,5.37,29.14,.22,62.87,8,100.27,23.13,1.23,.5,2.5,.73,3.75,.73,3.2,0,6.24-1.56,8.12-4.21,.61-.46,1.12-1.07,1.44-1.83,.31-.75,.39-1.53,.3-2.28,.78-4.54-1.66-9.16-6.1-10.96Zm-240.81,83.57c-.69-12.81-2.18-54.92,4.31-100.36,2.49-2.89,5.2-5.72,8.17-8.45,11.68-10.73,25.97-18.9,42.78-24.55-6.07,14.16-11.4,29.32-15.96,45.41-2.5,8.83-4.65,17.54-6.49,26-19.99,21.94-29.01,47.34-32.82,61.95Zm62.22-85.6c-6.43,3.68-12.23,7.79-17.47,12.18,1.02-4.06,2.11-8.16,3.28-12.29,4.57-16.1,10.62-33.55,18.64-50.99,5.22-1.32,10.65-2.42,16.29-3.31,2.02,2.98,5.59,4.77,9.42,4.34,6.05-.69,12.36-1.14,18.89-1.36-8.76,12.34-16.82,25.94-24.14,40.67-8.8,2.72-17.12,6.29-24.92,10.76Z"/></svg>