<?xml version="1.0" encoding="UTF-8"?><svg id="Layer_1" xmlns="http://www.w3.org/2000/svg" viewBox="0 0 1373 1399"><defs><style>.cls-1{fill:#033;}.cls-1,.cls-2{fill-rule:evenodd;}.cls-2{fill:#669866;}</style></defs><path class="cls-1" d="M442.23,670.69c-47.43,20.98-46.7,46.22-79.61,91.19-64.48,88.15-123.79,56.51-48.82,7.19,34.92-22.96,45.94-43.62,33.05-61.95-85.77,67.7-156.96,92.69-213.56,74.95-83.55,92.19-121.89,119.92-115,83.16,10.64-27.09,30.83-50.35,60.57-69.81-90.94-31.75-2.07-57.66,41.3-60.39,61.84-3.9,114.39,18.79,186.63-74.11-22.41-21.24-113.6-156.18-33.83-79.04,7.43,7.19,14.29,14.49,22.1,19.9,76.6,53.02,283.14,32.51,247.88-30.17-52.6-107.67-177.24-130.83-373.92-69.53-29.07,9.06-64.78-.94-27.52-17.36,52.06-22.94,135.46-33.38,192.52-43.92,46.56-8.63,65.96-29.33,56.66-60.12-13.39-44.3-83.52-69.06-134.92-82.12-16.25-4.14-117-43.73-45.5-38.38,38.71,2.91,165.24,39.63,189.68,66.35,18.32,20.05,32.79,52.46,43.4,97.24,26.28,5.08,49.54,13.5,69.83,25.23,10.97,7.39,21.61,15.21,31.89,23.43,5.42,5,10.53,10.34,15.33,16.01,.67,.04,1.32,.07,1.96,.11,.63,.02,1.27,.03,1.89,.04,22.02,19.57,42.26,41.14,60.42,64.48,20.75,31.31,42.67,18.92,11.91-12.47-21.52-21.95-38.44-48.01-49.75-76.67-.88-3.46-2.28-7.29-4.18-11.49l-.02-.03h0c-1.59-3.48-3.52-7.21-5.8-11.19-22.69-53.76-21.53-105.9-37.25-145.08-14.95-37.27-44.31-63.5-88.03-78.65-30.11-10.44-258.17-115.97-140.64-96.61,65.21,17.33,129.56,43.34,193.03,78.02-30.03-56.63-42.02-102.83-35.94-138.6,11.61-31.3,18.46-28.55,20.54,8.21,3.39,52.45,27.14,72.76,37.96,117.92,4.43,18.47,9.32,33.19,14.63,44.19,27.22,56.12,73.91-5.2,46.98-66.62-10.26-38.05-24.97-67.82-44.15-89.32,29.77-5.67,37.32,11.73,54.79,36.73,82.99-78.05,56.13-63.95,33.82,29.93-7.72,32.48-2.62,35.32,42.82,19.57,27.8,5.74,26.1,20.1-5.14,43.13-102.06,70.04-93.84,154.58,24.66,253.6,42.02-35.11,70.16-68.42,84.45-99.88h.02l.03-.1c4.89-10.8,8.15-21.38,9.78-31.76-20.08-28.61-32-62.14-34.52-97-2.79-63.28,30.12,15.47,44.4,64.85l5.9-19.16c15.12-10,26.67-19.8,34.62-29.37l.3-.36,.63-.77,.02-.03c5.11-6.35,8.63-12.61,10.58-18.78,4.74-11.06,9.08-25.21,13.06-42.46,10.8-46.87,33.21-54.01,37.12-114.3,2.07-36.76,8.92-39.51,20.53-8.21,6.08,35.77-5.9,81.98-35.94,138.6,63.48-34.68,127.82-60.69,193.03-78.02,134.17-30.77-165.84,96.57-169.65,109.44-10.35,35.13-53.15,43.94-63.43,78.46-4.06,46.04-15.01,90.19-32.85,132.45-46.95,50.34-65.27,121-48.69,187.82,7.48-52.42,30.24-101.27,65.12-140.6l.05-.05c5.68-6.41,11.7-12.57,18.02-18.44,26.1-23.07,59.09-38.47,98.98-46.19,10.75-44.54,22.06-79.52,43.98-96.42,33.39-25.77,150.07-62.79,189.09-67.18,35.79-4.01,19.21,24.24-13.77,31.1-60.16,12.51-105.56,29.63-136.21,51.35-66.77,47.31-27.16,91.73,43.18,100.65,91.13,16.22,149.66,30.03,175.56,41.45,33.5,14.76,4.24,27.5-18.52,20.21-201.88-64.84-329.53-42.62-382.93,66.68-23.64,40.03-3.82,63.58,59.32,68.73,97.08,7.95,120.13,25.74,197.99-46.41,92.12-85.34,25.3,22.95-21.17,66.99,80.27,103.22,136.24,63.74,207.65,76.6,47.54,8.55,96.17,31.41,20.29,57.9,29.73,19.46,49.93,42.72,60.57,69.81,6.89,36.76-31.45,9.03-115-83.16-56.6,17.74-127.77-7.25-213.56-74.95-12.55,17.84-2.44,37.89,30.33,60.13,67.59,45.92,25.3,60.3,4.22,42.43-24.01-20.34-43.37-41.99-70.22-63.07-78.22-61.44-108.99-98.33-192.02-4.27-6.11,6.91-11.57,14.34-16.36,22.19-3.64,9.06-4.87,19.09-3.29,29.08-7-42.17-27.62-73.87-61.93-95.07-16.06-9.51-33.63-16.57-52.12-20.8-2.14,.14-4.19,1.27-5.39,3.24-1.95,3.18-.99,7.29,2.13,9.3l.03,.02c57.26,13.18,89.62,53.96,105.96,100.99,36.6,105.23-32.23,194.94,136.19,244.01,37.11,9.3,82.8,14.9,137.11,16.81,87.68-2.44,167.61-.22,239.74,6.69-12.49,36.87-47.64,50.47-105.44,40.82-44.11-7.37-61.02,17.74-.89,28.96,48,8.95,48.08,52.72-.58,52.5-35.75-.16-51.12,15.19-46.08,46.1,1.17,18.92-3.28,26.62-13.33,23.1-18.2-56.04-52.99-97.69-104.36-124.94-17.02-9.03-23.54-14.47-18.88,10.91,4.69,25.56,27.28,52.45,67.79,80.67,8.52,26.85-1.75,28.21-30.8,4.11-28.5-2.96-24.55,11.06,11.8,42.09,7.07,14.1,3.82,19.91-9.75,17.46-43.85-16.85-64.92-52.84-63.22-107.97,1.41-45.91-50.07-66.23-92.47-68.06-83.61-3.58,43.72,43.55,56.09,46.67-41.7,15.67-84.13,4.72-127.31-32.86,8.9,44.62,58.49,81.98,142.25,125.48,39.25,20.39,58.77,57.11-12.37,40.33-7.34,36.3-18.17,29.81-32.49-19.43-9.49-32.69-31.33-38.67-28.6,9.68,8.08,71.29-17.48,94.79-16.01,53.74,2.71-74.46-24.3-129.51-81-165.14-10.34,69.11,8.57,133.02,56.7,191.73,19.61,23.89-4.99,36.15-20.03,19.03-13.69-15.55-27.11-12.18-40.27,10.13-29.54,50.07-12.03-39.82-9.23-48.9,13.2-54.26,5-89.66-24.55-106.19-39.9-22.29-35.5,54.62-2.65,94.89,3.64,17.74-2.17,24.07-17.47,18.99-38.14-21.2-49.07-55.44-32.74-102.72,15.2-44.05,61.32-91.83,19.91-142.16-.24,51.79-39.92,92.51-64.55,134.33-17.64,29.97-16.14,71.1,4.49,123.38,10.26,22.36,8.04,34.85-6.68,37.47-27.34,4.47-41.55-18.98-42.61-70.32-17.92-15.76-27.49-8.24-28.74,22.58-3.48,36.4-13.58,51.3-30.29,44.67-22.46-25.63-17.66-60.88,14.38-105.77,29.83-30.7,50.98-59.88,63.41-87.55,25.97-57.8-.03-51.29-30.03-7.02-14.55,21.48-34.4,43.25-59.55,65.32-25.57,20.9-41.86,10.74-22.85-14.38,13.38-17.68,31.95-36.97,55.73-57.87,14.91-13.1,41.21-32.25,27.68-54.54-26.39-28.17-78.66,31.17-94.59,52.69-16.48,22.29-30.43,101.68-24.8,144.94,2.77,21.43,31.03,49.48,12.62,53.9-28.64-9.73-44.27-34.53-46.89-74.4-.41-6.25,27.11-88.79-8.45-60.97-10.05,7.87-20.76,28.07-32.14,60.6-18.65,53.32-42.26,29.05-40.81-7.79,1.62-40.57,34.11-80.46,97.48-119.69-18.9,1.86-36.33,8.93-52.27,21.2-28.24,21.75-35.59-3.25-13.9-19.64,21.71-16.37,48.42-28.52,80.1-36.43,43.61-10.91,48.8-34.22,1.42-45.55-22.84-5.46-37.21,1.95-55.68,13.83-32.72,21.09-59.49,67.25-80.31,138.47-1.57,30.38-6.2,44.58-13.86,42.61-27.37-13.84-33.36-39.16-17.97-75.98,11.97-14.82,15.4-26.28,10.27-34.4-25.62,12.62-54.02,24.09-85.23,34.4-22.77,5.53-27.18-10.77-6.57-17.89,56.64-19.55,102.99-41.54,139.01-65.99,42.55-28.87-3.56-52.18-23.64-24.23-18.2,25.36-45.74,45.14-82.6,59.34-25.32,8.63-30.12-3.54-6.65-15.18,16.43-8.16,30.26-17.22,46.53-27.27,25.21-15.55,29.72-29.99,13.51-43.29-25.2-13.63-49.66-3.36-73.42,30.8-8.67,13.33-18.67,33.42-27.32,61.11-12.72,40.64-30.56,22.46-17.53-12.27,10.89-28.97,28.6-44.57,27.93-64.24-42.08-42.72-64.99,54.5-91.16,28.95-18.1-17.69-32.51-38.88-42.32-62.31,47.51,9.19,98.68,2,153.5-21.56,124.63-49.47,274.67,92.81,307.04-41.84,29.13-121.09-38.98-361.06-110.78-329.33h0Zm351.73,335.44c-7.13-7.64-15.67-17.96-25.62-30.95-11.75-10-19.13-10.41-22.13-1.21-3.03,23.34,1.44,39.34,13.39,47.97,17.57,13.86,35.86,22.1,54.85,24.69,41.3,5.65-3.64-25.41-20.5-40.49h0Zm-119.02-263.68c-37.05-20.76-41.15-14.94-12.32,17.46,21.3,19.76,33.65,40.61,37.04,62.53,4.21,27.37,30.78,58.94,18.41,4.21-.72-34.98-15.1-63.04-43.13-84.19h0Zm25.3,248.55c-18.8-93.26-27.55-113.14-26.29-59.63,1.26,52.77,45.24,153.86,26.29,59.63h0Zm-124.36-177.18c-3.46,35.03,5.9,38.1,10.65,65.31,4.78,27.32,12.38,47.59,22.77,60.82,9.06,11.51,44.58,39.07,32.29,4.27-14.22-22.01-22.4-40.49-24.57-55.46-2.85-19.68-33.72-162.63-41.14-74.94Z"/><path class="cls-2" d="M874.15,738.06c.43,30.2,14.17,58.68,37.54,77.81,23.39,19.12,54.01,26.95,83.7,21.39-42.13-28.51-10.11-120.76-112.08-121.41,10.14,40.24,36.01,74.72,71.82,95.71-34.62-11.71-63.7-41.29-80.97-73.51Z"/><path class="cls-2" d="M1126.89,797.14c.21,13.88,6.52,26.96,17.27,35.76,10.74,8.79,24.82,12.39,38.47,9.84-19.37-13.11-4.66-55.5-51.53-55.8,4.66,18.49,16.55,34.35,33.02,44-15.91-5.39-29.29-18.98-37.23-33.79Z"/><path class="cls-2" d="M1235.64,820.83c-7.43,21.29-5.08,44.76,6.41,64.17,11.49,19.4,30.95,32.74,53.2,36.43-22.25-30.77,23.84-87.25-47.49-113.83-3.21,30.82,6.1,61.62,25.83,85.5-21.27-17.08-34.08-45.26-37.95-72.27Z"/><path class="cls-2" d="M1134.3,689.33c28.69,18.38,64.03,23.17,96.57,13.07,32.54-10.09,58.96-34.04,72.21-65.44-53.05,21.91-119.91-65.61-183.98,29.92,44.18,15.51,92.73,12.63,134.76-8.01-32.57,25.29-78.49,34.25-119.55,30.46Z"/><path class="cls-2" d="M878.65,610.06c20.94,13.42,46.74,16.92,70.5,9.54,23.76-7.36,43.06-24.84,52.72-47.76-38.73,15.99-87.55-47.91-134.32,21.83,32.25,11.33,67.7,9.23,98.39-5.84-23.78,18.46-57.31,25-87.28,22.23Z"/><path class="cls-2" d="M1012.45,501.28c9.89,19.25,27.76,33.15,48.85,37.99,21.09,4.84,43.24,.12,60.52-12.88-36.11-4.9-44.9-74.29-110.56-42.27,19.31,22.6,46.89,36.51,76.54,38.59-25.94,3.49-54.02-6.24-75.35-21.43Z"/><path class="cls-2" d="M1239.61,532.41c1.08,14.95,8.69,28.64,20.82,37.45,12.12,8.79,27.5,11.79,42.05,8.2-21.68-12.92-8.48-59.51-58.98-56.91,6.17,19.64,19.97,35.99,38.31,45.35-17.48-4.81-32.74-18.62-42.2-34.08Z"/><path class="cls-2" d="M1054.23,414.14c30.61,8.67,63.47,3.39,89.81-14.43,26.35-17.83,43.47-46.37,46.81-77.99-41.47,33.9-124.88-26.2-156.28,76.48,43.65,1.92,86.26-13.8,118.23-43.6-22.26,31.4-60.87,51.82-98.58,59.54Z"/><path class="cls-2" d="M1180.07,418.84c19.43-21.63,47.44-33.57,76.51-32.65,29.08,.93,56.25,14.66,74.26,37.5-48.62-6-83.82,81.18-158.2,17.07,32.84-22.77,73.45-31.4,112.72-23.94-32.54-13.43-72.36-10.4-105.29,2.02Z"/><path class="cls-2" d="M927.33,405.49c12.15-17.9,15.76-40.27,9.89-61.09-5.88-20.82-20.65-37.99-40.36-46.91,13.03,34.04-43.62,75.06,15.99,117.29,10.56-27.79,9.52-58.67-2.9-85.67,15.52,21.09,20.47,50.38,17.38,76.38Z"/><path class="cls-2" d="M941.46,260.34c18.4,11.39,40.88,14.05,61.44,7.31,20.57-6.74,37.09-22.22,45.18-42.29-33.45,14.45-76.81-40.44-116.51,20.88,28.21,9.39,59.01,7.07,85.48-6.47-20.42,16.39-49.49,22.56-75.59,20.56Z"/><path class="cls-2" d="M1081.82,182.35c12.12,7.49,26.94,9.26,40.48,4.81,13.54-4.43,24.43-14.63,29.75-27.85-22.04,9.51-50.59-26.65-76.75,13.75,18.58,6.19,38.88,4.66,56.32-4.27-13.46,10.8-32.6,14.86-49.8,13.56Z"/><path class="cls-2" d="M1105.72,270.67c14.11-2.01,26.62-10.13,34.18-22.22,7.55-12.08,9.4-26.89,5.02-40.45-10.83,21.43-55.93,11.93-50.16,59.7,18.25-7.15,32.84-21.3,40.54-39.33-3.43,16.92-15.53,32.29-29.59,42.3Z"/><path class="cls-2" d="M950.74,161.83c20.36-7.27,36.48-23.13,44.05-43.37,7.57-20.24,5.81-42.79-4.79-61.62-9.6,35.1-79.46,34.68-56.4,103.89,24.92-16.14,42.32-41.62,48.28-70.7,.04,26.14-13.29,52.66-31.13,71.79Z"/><path class="cls-2" d="M823.78,251.14c13.52-16.85,18.9-38.83,14.71-60.03-4.18-21.2-17.51-39.46-36.43-49.92,10.26,34.92-49.4,71.23,6.56,118.03,12.73-26.82,14.16-57.63,3.95-85.53,13.78,22.23,16.36,51.8,11.21,77.44Z"/><path class="cls-2" d="M876.48,143.8c6.84-12.51,7.83-27.39,2.68-40.69-5.14-13.29-15.89-23.62-29.37-28.25,10.67,21.51-23.96,51.92,17.76,75.92,5.2-18.88,2.61-39.06-7.2-56.02,11.49,12.87,16.54,31.77,16.14,49.03Z"/><path class="cls-2" d="M660.93,160.27c25.14-2.68,47.82-16.33,61.96-37.29,14.16-20.98,18.32-47.1,11.4-71.43-20.52,37.32-99.89,17.74-92.58,102.8,32.77-11.55,59.54-35.77,74.26-67.25-7.1,29.76-29.51,56.28-55.04,73.17Z"/><path class="cls-2" d="M711.1,424.8c15.13-18.86,21.14-43.43,16.46-67.15-4.69-23.71-19.59-44.15-40.76-55.85,11.49,39.07-55.27,79.68,7.34,132.04,14.25-30,15.84-64.48,4.43-95.67,15.4,24.87,18.28,57.93,12.53,86.62Z"/><path class="cls-2" d="M624.57,322.32c13.28-5.17,23.61-15.94,28.21-29.44,4.61-13.48,3.03-28.31-4.33-40.52-5.67,23.32-51.73,24.37-35.22,69.57,16.14-11.12,27.12-28.24,30.5-47.54,.52,17.24-7.76,34.97-19.16,47.92Z"/><path class="cls-2" d="M706.47,251.32c13.29-5.17,23.61-15.94,28.21-29.42,4.61-13.5,3.03-28.33-4.33-40.54-5.67,23.33-51.73,24.37-35.22,69.57,16.14-11.11,27.12-28.24,30.5-47.53,.52,17.24-7.76,34.98-19.16,47.92Z"/><path class="cls-2" d="M810.82,99.95c11.26-16.54,14.65-37.21,9.25-56.48-5.41-19.28-19.04-35.19-37.25-43.47,12,31.5-40.48,69.35,14.58,108.52,9.82-25.69,8.91-54.25-2.52-79.26,14.32,19.53,18.83,46.65,15.94,70.7Z"/><path class="cls-2" d="M582.85,72.94c-.39-20.41,8.27-39.95,23.62-53.39,15.37-13.43,35.88-19.41,56.06-16.31-27.82,20.19-4.13,81.8-73,84.51,5.95-27.42,22.65-51.28,46.38-66.26-23.13,8.69-42.11,29.32-53.06,51.46Z"/><path class="cls-2" d="M571.51,209.27c7.97-13.93,9.36-30.66,3.84-45.74-5.53-15.06-17.44-26.91-32.52-32.39,11.58,24.44-27.97,57.99,18.5,85.83,6.24-21.15,3.72-43.92-7.01-63.19,12.67,14.71,18.01,36.09,17.2,55.49Z"/><path class="cls-2" d="M511.8,83.4c15.27-4.93,27.6-16.34,33.67-31.19,6.07-14.86,5.27-31.64-2.17-45.86-7.91,25.84-59.76,23.95-44.21,75.85,18.86-11.42,32.36-29.93,37.44-51.39-.55,19.42-11.06,38.79-24.72,52.58Z"/><path class="cls-2" d="M455.81,133.38c-2.1-23.82-14.59-45.5-34.14-59.25-19.56-13.74-44.19-18.16-67.31-12.04,34.91,20.07,14.97,94.74,95.5,89.36-10.32-31.19-32.75-56.91-62.23-71.41,28.01,7.25,52.67,28.91,68.18,53.35Z"/><path class="cls-2" d="M535.18,401.36c7.46-31.97,.45-65.6-19.19-91.91-19.64-26.32-49.9-42.6-82.67-44.54,36.96,41.12-21.03,130.04,86.37,157.48-.14-45.11-18.38-88.29-50.64-119.82,33.45,21.46,56.36,60.27,66.13,98.79Z"/><path class="cls-2" d="M312.58,229.37c-2.08-23.82-14.58-45.5-34.14-59.25-19.55-13.75-44.19-18.15-67.31-12.04,34.92,20.06,14.97,94.74,95.5,89.36-10.32-31.19-32.75-56.91-62.23-71.42,28.01,7.25,52.69,28.91,68.18,53.35Z"/><path class="cls-2" d="M399.54,295.51c7.95-13.93,9.36-30.66,3.82-45.74-5.53-15.06-17.42-26.91-32.51-32.39,11.58,24.42-27.98,57.99,18.5,85.82,6.23-21.15,3.7-43.92-7.01-63.19,12.67,14.71,17.99,36.09,17.2,55.49Z"/><path class="cls-2" d="M366.95,383.83c-15.63-13.24-36.3-18.9-56.5-15.49-20.2,3.42-37.87,15.58-48.27,33.23,33.36-8.83,66.23,48.69,112.05-3.15-25.09-12.76-54.27-14.92-80.96-5.98,21.44-12.48,49.52-14.14,73.68-8.61Z"/><path class="cls-2" d="M199.4,318.2c-13.74,8.28-30.44,10.08-45.63,4.9-15.19-5.17-27.31-16.8-33.14-31.75,24.69,11.01,57.3-29.33,86.23,16.48-21,6.73-43.82,4.74-63.34-5.53,14.99,12.33,36.51,17.16,55.88,15.9Z"/><path class="cls-2" d="M206.7,430.35c-29.02,17.5-64.27,21.27-96.35,10.35-32.07-10.92-57.68-35.46-69.98-67.02,52.12,23.23,121-61.93,182.05,34.79-44.33,14.2-92.51,10-133.72-11.66,31.68,26.02,77.08,36.2,117.99,33.54Z"/><path class="cls-2" d="M504.07,605.61c-26.77,16.13-59.29,19.62-88.88,9.54-29.57-10.08-53.19-32.7-64.53-61.82,48.07,21.44,111.61-57.13,167.92,32.09-40.9,13.11-85.33,9.23-123.34-10.75,29.21,24.01,71.08,33.4,108.83,30.95Z"/><path class="cls-2" d="M276.64,645.12c-19.52-16.54-45.33-23.63-70.57-19.36-25.23,4.27-47.28,19.45-60.26,41.5,41.66-11.01,82.71,60.79,139.9-3.93-31.32-15.95-67.74-18.63-101.08-7.47,26.76-15.56,61.83-17.66,92-10.74Z"/><path class="cls-2" d="M226.3,561.89c-15.88,2.32-31.97-2.48-43.97-13.14-12.02-10.64-18.7-26.05-18.3-42.08,18.52,19.68,64.2-4.9,73.14,48.54-21.96-1.92-42.23-12.58-56.27-29.59,9.08,17.17,27.04,29.93,45.39,36.27Z"/><path class="cls-2" d="M87.39,733.56c-15.88,2.33-31.97-2.47-43.99-13.12-12-10.65-18.7-26.05-18.28-42.09,18.5,19.7,64.19-4.88,73.14,48.55-21.96-1.92-42.25-12.58-56.27-29.6,9.06,17.18,27.04,29.93,45.39,36.27Z"/><path class="cls-2" d="M129.39,536.1c-22.58-13.6-50.01-16.55-74.95-8.04-24.96,8.49-44.88,27.58-54.44,52.13,40.54-18.06,94.13,48.19,141.63-27.05-34.49-11.06-71.99-7.79-104.03,9.06,24.64-20.24,59.95-28.15,91.79-26.1Z"/><path class="cls-2" d="M501.46,712.09c-.55,24.51-11.9,47.52-31,62.89-19.1,15.36-44.01,21.5-68.05,16.8,34.38-22.85,9.02-97.93,91.77-97.77-8.5,32.58-29.72,60.4-58.94,77.18,28.18-9.28,51.98-33.06,66.22-59.1Z"/><path class="cls-2" d="M248.91,806.09c-.42,18.58-9.02,36.01-23.49,47.67-14.47,11.64-33.36,16.3-51.6,12.72,26.07-17.32,6.85-74.22,69.58-74.1-6.44,24.7-22.54,45.78-44.67,58.5,21.36-7.02,39.4-25.06,50.19-44.79Z"/><path class="cls-2" d="M1319.13,733.61c18.67-3.52,34.85-15.09,44.18-31.64,9.34-16.54,10.9-36.36,4.26-54.16-13.14,29.17-73.75,19.23-63.2,82.5,23.87-10.61,42.45-30.34,51.61-54.78-3.54,22.71-18.74,43.91-36.85,58.08Z"/><path class="cls-2" d="M1226.38,358.98c14.11-2.01,26.62-10.13,34.17-22.22,7.56-12.08,9.41-26.87,5.03-40.45-10.83,21.43-55.93,11.93-50.15,59.7,18.23-7.15,32.84-21.3,40.54-39.33-3.43,16.91-15.53,32.28-29.59,42.29Z"/><path class="cls-2" d="M375.1,478.14c-15.72-3.22-32.06,.67-44.64,10.62-12.6,9.95-20.15,24.96-20.64,40.99,19.59-18.61,63.82,8.52,75.77-44.31-22.04,.66-42.89,10.16-57.85,26.35,10.02-16.63,28.69-28.36,47.37-33.64Z"/></svg>